<svg height="418pt" viewBox="0 -33 418.0006 418" width="418pt" xmlns="http://www.w3.org/2000/svg"><g fill="#d4e1f4"><path d="m39 313.992188 49.351562-105.746094h-16l-63.351562 135.746094h400l-14-30zm0 0"/><path d="m279.640625 96.027344c0-27.242188-21.863281-49.324219-48.828125-49.324219-17.957031.027344-34.445312 9.925781-42.910156 25.761719 7.039062-3.789063 14.910156-5.769532 22.90625-5.761719 26.964844 0 48.828125 22.082031 48.828125 49.324219.015625 8.222656-2.019531 16.320312-5.921875 23.5625 16.003906-8.640625 25.964844-25.378906 25.925781-43.5625zm0 0"/><path d="m149.238281 184.21875c-11.339843-11.878906-20.589843-25.667969-26.269531-40.980469-5.507812-14.628906-7.839844-30.257812-6.847656-45.855469 1.648437-23.527343 10.300781-46.023437 24.839844-64.597656-26.230469 20.597656-42.519532 51.332032-44.839844 84.601563-.992188 15.597656 1.339844 31.230469 6.847656 45.855469 5.679688 15.3125 14.929688 29.101562 26.269531 40.984374l81.574219 85.46875 19.542969-20.476562zm0 0"/></g><path d="m353.808594 204.4375c-1.480469-3.167969-4.660156-5.195312-8.15625-5.195312h-59.878906v18h54.148437l54.949219 117.753906h-371.738282l54.949219-117.753906h57.972657v-18h-63.699219c-3.496094 0-6.675781 2.027343-8.15625 5.195312l-63.351563 135.746094c-1.304687 2.789062-1.09375 6.050781.558594 8.644531s4.519531 4.167969 7.59375 4.167969h400c3.078125 0 5.941406-1.574219 7.59375-4.167969s1.863281-5.851563.5625-8.640625zm0 0" fill="#0635c9"/><path d="m210.8125 298.695312c-2.460938 0-4.8125-1.007812-6.511719-2.785156l-81.570312-85.472656c-12.871094-13.484375-22.355469-28.3125-28.203125-44.066406-5.964844-15.816406-8.484375-32.726563-7.386719-49.597656 2.101563-30.839844 15.410156-59.839844 37.417969-81.539063 47.90625-46.976563 124.597656-46.976563 172.5 0 22.011718 21.699219 35.320312 50.699219 37.417968 81.539063 1.101563 16.871093-1.417968 33.78125-7.386718 49.597656-5.84375 15.757812-15.332032 30.582031-28.199219 44.066406l-81.570313 85.46875c-1.695312 1.78125-4.050781 2.789062-6.507812 2.789062zm0-280.695312c-27.542969-.117188-54.011719 10.6875-73.601562 30.046875-18.882813 18.613281-30.304688 43.492187-32.109376 69.949219-.921874 14.328125 1.226563 28.683594 6.304688 42.113281 4.988281 13.449219 13.179688 26.203125 24.34375 37.902344l75.0625 78.648437 75.0625-78.648437c11.164062-11.699219 19.355469-24.449219 24.34375-37.902344 5.074219-13.429687 7.226562-27.785156 6.304688-42.113281-1.804688-26.457032-13.222657-51.335938-32.105469-69.953125-19.59375-19.363281-46.0625-30.167969-73.605469-30.046875zm0 156.351562c-31.886719 0-57.832031-26.164062-57.832031-58.324218s25.945312-58.324219 57.832031-58.324219 57.828125 26.164063 57.828125 58.324219-25.9375 58.324218-57.828125 58.324218zm0-98.648437c-21.960938 0-39.832031 18.089844-39.832031 40.324219s17.871093 40.324218 39.832031 40.324218 39.828125-18.085937 39.828125-40.324218c0-22.234375-17.867187-40.324219-39.828125-40.324219zm0 0" fill="#e51a1a"/></svg>