<svg height="402pt" viewBox="-17 0 401 402" width="402pt" xmlns="http://www.w3.org/2000/svg"><path d="m62.355469 356.554688v-312.109376c.019531-18.769531 15.230469-33.980468 34-34h-30c-18.769531.019532-33.980469 15.230469-34 34v312.109376c.019531 18.769531 15.230469 33.980468 34 34h30c-18.769531-.019532-33.980469-15.230469-34-34zm0 0" fill="#d4e1f4"/><path d="m367.460938 356v-310c-.027344-25.394531-20.605469-45.9726562-46-46h-255.730469c-25.390625.0273438-45.96875 20.605469-46 46v310c.03125 25.394531 20.609375 45.972656 46 46h255.730469c25.394531-.027344 45.972656-20.605469 46-46zm-12-310v310c-.019532 18.769531-15.230469 33.980469-34 34h-217.570313v-378h217.570313c18.769531.019531 33.980468 15.230469 34 34zm-323.730469 310v-310c.019531-18.769531 15.230469-33.980469 34-34h26.160156v378h-26.160156c-18.769531-.019531-33.980469-15.230469-34-34zm0 0" fill="#0635c9"/><g fill="#e51a1a"><path d="m287.925781 86.59375h-123.527343c-13.269532.015625-24.027344 10.769531-24.042969 24.042969v76.585937c.015625 13.273438 10.773437 24.027344 24.042969 24.042969h123.527343c13.269531-.015625 24.027344-10.769531 24.042969-24.042969v-76.585937c-.015625-13.273438-10.773438-24.027344-24.042969-24.042969zm12.042969 100.628906c-.007812 6.648438-5.398438 12.035156-12.042969 12.042969h-123.527343c-6.644532-.007813-12.035157-5.394531-12.042969-12.042969v-76.585937c.007812-6.648438 5.394531-12.035157 12.042969-12.042969h123.527343c6.644531.007812 12.035157 5.394531 12.042969 12.042969zm0 0"/><path d="m70.210938 195h-63.710938c-3.3125 0-6 2.6875-6 6s2.6875 6 6 6h63.710938c3.316406 0 6-2.6875 6-6s-2.683594-6-6-6zm0 0"/><path d="m70.210938 140.859375h-63.710938c-3.3125 0-6 2.6875-6 6 0 3.316406 2.6875 6 6 6h63.710938c3.316406 0 6-2.683594 6-6 0-3.3125-2.683594-6-6-6zm0 0"/><path d="m70.210938 249.140625h-63.710938c-3.3125 0-6 2.683594-6 6 0 3.3125 2.6875 6 6 6h63.710938c3.316406 0 6-2.6875 6-6 0-3.316406-2.683594-6-6-6zm0 0"/><path d="m70.210938 303.277344h-63.710938c-3.3125 0-6 2.6875-6 6s2.6875 6 6 6h63.710938c3.316406 0 6-2.6875 6-6s-2.683594-6-6-6zm0 0"/><path d="m70.210938 86.722656h-63.710938c-3.3125 0-6 2.6875-6 6s2.6875 6 6 6h63.710938c3.316406 0 6-2.6875 6-6s-2.683594-6-6-6zm0 0"/></g></svg>