<svg id="Capa_1" enable-background="new 0 0 512 512" height="512" viewBox="0 0 512 512" width="512" xmlns="http://www.w3.org/2000/svg" xmlns:xlink="http://www.w3.org/1999/xlink"><linearGradient id="SVGID_1_" gradientUnits="userSpaceOnUse" x1="15.84" x2="558.827" y1="-84.975" y2="571.716"><stop offset=".0009507276" stop-color="#b3b3ff"/><stop offset=".992" stop-color="#ffe8dc" stop-opacity="0"/></linearGradient><g><path d="m213.801 18.895c-21.113-15.7-48.009-21.438-74.078-17.877-33.788 4.615-71.455 16.884-89.49 47.23-36.883 62.059-32.785 168.609 26.637 170.658s129.388 2.049 129.239 112.697c-.15 110.648 44.929 231.541 110.498 157.776s114.747-79.913 102.453-151.629 66.428-82.509 66.428-139.87c0-53.422-38.46 4.82-77.392-40.259s-56.654-139.521-134.517-131.325c-34.065 3.586-51.237-1.05-59.778-7.401z" fill="url(#SVGID_1_)"/><g><path d="m433.015 355.486-10.78-59.289c-1.148-6.314-4.724-11.927-9.961-15.636l-44.824-31.746v-8.744c0-4.37-2.85-8.24-7.02-9.54l-18.35-5.74c-6.44-2.02-12.99 2.79-12.99 9.54v.526l-9.703-4.459h-44.492v-26.235c.231-.221.469-.436.695-.662 7.45-7.44 12.05-17.73 12.05-29.09v-.973c8.366-1.427 14.74-8.693 14.74-17.466 0-2.706-.624-5.26-1.707-7.554 5.097-1.264 10.073-2.707 14.905-4.326 3.661-1.227 4.601-5.974 1.692-8.513l-16.27-14.209-6.665-37.13c-1.711-9.53-10.003-16.466-19.685-16.466h-50.306c-9.683 0-17.975 6.936-19.685 16.466l-6.665 37.13-16.271 14.207c-2.909 2.54-1.969 7.287 1.693 8.514 7.029 2.354 14.36 4.337 21.935 5.931v24.388c0 19.488 13.556 35.8 31.755 40.05v15.937h-44.492l-31.446 10.664c-7.216 2.447-14.039 5.927-20.257 10.331l-41.184 29.168c-5.237 3.709-8.813 9.322-9.961 15.636l-10.78 59.289c-1.369 7.532 4.417 14.465 12.072 14.465h1.881v113.62c0 5.523 4.477 10 10 10h306.124c5.523 0 10-4.477 10-10v-113.62h1.881c7.654.001 13.44-6.932 12.071-14.464z" fill="#00c" opacity=".1"/><g><g><g><g><g><path d="m361.714 337.984h57.348v131.587h-57.348z" fill="#ff8b00"/><g fill="#ffd6bb"><path d="m361.714 378.51h57.348v26.539h-57.348z"/><path d="m361.714 427.792h57.348v26.539h-57.348z"/></g><path d="m361.714 337.984h57.348v26.539h-57.348z" fill="#ff7300"/><path d="m422.235 272.197 10.78 59.289c1.369 7.532-4.417 14.465-12.072 14.465h-59.229v-125.199l50.56 35.809c5.237 3.709 8.813 9.322 9.961 15.636z" fill="#ffab66"/></g><g><path d="m92.938 337.984h57.348v131.587h-57.348z" fill="#ff8b00"/><path d="m92.938 337.984h57.348v26.539h-57.348z" fill="#ff7300"/><g fill="#ffd6bb"><path d="m92.938 378.51h57.348v26.539h-57.348z"/><path d="m92.938 427.792h57.348v26.539h-57.348z"/></g></g></g><g><path d="m319.387 206.397h-126.774l-31.446 10.665c-7.216 2.447-14.039 5.927-20.257 10.331l-41.184 29.168c-5.237 3.709-8.813 9.322-9.961 15.636l-10.78 59.289c-1.369 7.532 4.417 14.465 12.072 14.465h53.497v123.62h222.891v-241.088z" fill="#ffab66"/><path d="m327.57 210.16c-1.97 37.77-33.32 67.9-71.57 67.9-38.58 0-70.14-30.65-71.6-68.87l8.21-2.79h126.78z" fill="#ffd6bb"/><path d="m307.66 206.397c0 28.531-23.129 51.66-51.66 51.66s-51.66-23.129-51.66-51.66z" fill="#ff9494"/><path d="m303.073 451.94h64.373v-21.147h-64.373c-2.761 0-5 2.239-5 5v11.147c0 2.761 2.238 5 5 5z" fill="#ff9d33"/></g></g><g><g><path d="m237.105 171.13h37.79v48.28h-37.79z" fill="#ff9494"/><path d="m274.895 171.13v27.69c-8.33 4.91-18.05 7.73-28.4 7.73-3.2 0-6.34-.27-9.39-.79v-34.63z" fill="#ff6c6c"/></g><g><path d="m287.64 91.68v58.73c0 11.36-4.6 21.65-12.05 29.09s-17.73 12.05-29.09 12.05c-22.73 0-41.15-18.42-41.15-41.14v-58.73z" fill="#ff9494"/><g fill="#ff6c6c"><path d="m287.64 91.68v50.76c-12.4 2.07-25.14 3.11-38.14 3.11-15.11 0-29.88-1.41-44.15-4.21v-49.66z"/><circle cx="284.642" cy="131.971" r="17.738"/></g></g></g></g><g><path d="m301 97.37-6.665-37.13c-1.711-9.53-10.003-16.466-19.685-16.466h-50.306c-9.683 0-17.975 6.936-19.685 16.466l-6.665 37.13-16.271 14.207c-2.912 2.543-1.964 7.289 1.703 8.517 19.994 6.696 42.397 10.459 66.071 10.459s46.077-3.763 66.072-10.459c3.666-1.228 4.615-5.974 1.703-8.517z" fill="#6c6cff"/><path d="m232.469 91.682h-11.457c-1.657 0-3-1.343-3-3v-17.651c0-1.657 1.343-3 3-3h11.457c1.657 0 3 1.343 3 3v17.651c0 1.657-1.343 3-3 3z" fill="#fff"/></g><path d="m367.45 216.07v253.5h-38.36v-259.24c0-6.75 6.55-11.56 12.99-9.54l18.35 5.74c4.17 1.3 7.02 5.17 7.02 9.54z" fill="#6c6cff"/><path d="m329.09 263.677h38.36v54.904h-38.36z" fill="#b3b3ff"/><path d="m329.09 430.792h38.36v21.15h-38.36z" fill="#4d4dff"/><path d="m303.073 435.044h64.373v-21.147h-64.373c-2.761 0-5 2.239-5 5v11.147c0 2.761 2.238 5 5 5z" fill="#b3b3ff"/><g fill="#00c"><path d="m437.934 330.592-10.78-59.289c-1.39-7.646-5.648-14.331-11.991-18.822l-42.718-30.255v-6.154c0-6.595-4.229-12.348-10.521-14.314l-18.352-5.742c-4.605-1.439-9.475-.63-13.362 2.228-2.006 1.474-3.561 3.366-4.605 5.51l-4.131-1.898c-.655-.301-1.367-.457-2.088-.457h-39.493v-19.204c7.271-7.635 11.959-17.745 12.647-28.926 2.997-1.108 5.802-2.839 8.181-5.218 5.288-5.288 7.576-12.882 6.284-20.125 3.419-.946 6.806-1.969 10.151-3.089 3.442-1.152 5.922-3.966 6.634-7.525.712-3.561-.496-7.111-3.23-9.499l-14.948-13.052-6.355-35.402c-2.141-11.927-12.49-20.583-24.607-20.583h-50.306c-12.117 0-22.466 8.656-24.607 20.583l-6.354 35.402-14.948 13.052c-2.734 2.388-3.942 5.938-3.23 9.499.711 3.56 3.191 6.373 6.633 7.525 6.052 2.027 12.232 3.759 18.518 5.214v20.356c0 20.418 13.336 37.77 31.751 43.832v7.161h-39.493c-.546 0-1.088.09-1.606.265l-31.446 10.664c-7.679 2.604-14.926 6.301-21.541 10.986l-41.185 29.165c-6.342 4.491-10.601 11.176-11.991 18.822l-10.78 59.289c-.918 5.053.442 10.212 3.733 14.155 2.612 3.13 6.203 5.178 10.139 5.898v118.926c0 2.762 2.239 5 5 5s5-2.238 5-5v-118.619h10.327c2.761 0 5-2.238 5-5s-2.239-5-5-5h-17.206c-2.162 0-4.196-.952-5.582-2.611-1.385-1.66-1.958-3.832-1.571-5.959l10.78-59.289c.919-5.059 3.736-9.48 7.931-12.451l41.185-29.168c5.826-4.127 12.209-7.382 18.973-9.676l30.665-10.399h38.668v8.009c0 2.762 2.239 5 5 5s5-2.238 5-5v-23.073c1.446.137 2.909.214 4.39.214 8.536 0 16.532-2.339 23.397-6.396v29.255c0 2.762 2.239 5 5 5s5-2.238 5-5v-8.009h38.399l5.801 2.665v163.545c0 2.762 2.239 5 5 5s5-2.238 5-5v-167.278c0-1.608.743-3.076 2.039-4.028 1.295-.953 2.919-1.221 4.454-.743l18.353 5.743c2.097.655 3.506 2.572 3.506 4.771v192.825h-59.373c-5.514 0-10 4.486-10 10v11.146c0 5.514 4.486 10 10 10h21.021v29.526c0 2.762 2.239 5 5 5s5-2.238 5-5v-29.526h28.352v29.526c0 2.762 2.239 5 5 5s5-2.238 5-5v-118.619h41.616v118.619c0 2.762 2.239 5 5 5s5-2.238 5-5v-118.925c3.936-.72 7.527-2.768 10.139-5.898 3.291-3.943 4.652-9.102 3.733-14.155zm-238.808-227.573c3.728 1.178 10.895 3.233 20.308 4.93.3.054.599.08.894.08 2.373 0 4.479-1.696 4.915-4.113.49-2.718-1.315-5.318-4.033-5.809-7.685-1.386-13.803-3.037-17.523-4.154l5.893-32.83c1.285-7.156 7.494-12.351 14.764-12.351h50.306c7.27 0 13.479 5.194 14.764 12.351l5.922 32.989c-6.119 2.016-19.596 5.679-38.57 6.459-2.759.113-4.904 2.442-4.79 5.201.11 2.689 2.325 4.795 4.992 4.795.069 0 .139-.001.209-.004 21.696-.892 36.705-5.327 42.788-7.459l14.016 12.248c-20.211 6.769-41.907 10.201-64.484 10.201-22.576 0-44.272-3.433-64.485-10.21zm47.37 83.528c-19.928 0-36.141-16.213-36.141-36.142v-18.291c12.685 2.286 25.77 3.439 39.141 3.439 16.429 0 32.426-1.743 47.78-5.188.478 3.854-.826 7.811-3.627 10.612-4.328 4.328-11.133 4.962-16.182 1.508-2.279-1.56-5.391-.978-6.95 1.302-1.56 2.279-.977 5.391 1.302 6.95 3.235 2.214 6.875 3.475 10.568 3.841-2.074 17.97-17.374 31.969-35.891 31.969zm56.577 243.497v-11.146h59.373v11.146zm123.451-91.704c-1.385 1.659-3.419 2.611-5.581 2.611h-48.497v-106.472l36.938 26.161c4.195 2.971 7.012 7.393 7.931 12.451l10.78 59.289c.387 2.128-.186 4.3-1.571 5.96z"/><path d="m144.554 281.836c-2.761 0-5 2.238-5 5v182.734c0 2.762 2.239 5 5 5s5-2.238 5-5v-182.734c0-2.762-2.239-5-5-5z"/></g><g><g><path d="m226.814 321.297c0 9.753-13.877 28.651-19.822 36.301-1.346 1.732-3.959 1.732-5.305 0-5.946-7.649-19.822-26.547-19.822-36.301 0-12.412 10.062-22.475 22.475-22.475 12.412 0 22.474 10.062 22.474 22.475z" fill="#ff4d4d"/><circle cx="204.34" cy="321.137" fill="#fff" r="9.37"/></g><g><g><g><path d="m275.894 327.521c2.761 0 5-2.238 5-5v-8.053c0-2.762-2.239-5-5-5s-5 2.238-5 5v8.053c0 2.761 2.238 5 5 5z" fill="#fff"/></g><g><path d="m259 327.521c2.761 0 5-2.238 5-5v-8.053c0-2.762-2.239-5-5-5s-5 2.238-5 5v8.053c0 2.761 2.239 5 5 5z" fill="#fff"/></g><g><path d="m242.107 327.521c2.761 0 5-2.238 5-5v-8.053c0-2.762-2.239-5-5-5s-5 2.238-5 5v8.053c0 2.761 2.238 5 5 5z" fill="#fff"/></g></g><g><g><path d="m292.787 351.547c2.761 0 5-2.238 5-5v-8.053c0-2.762-2.239-5-5-5s-5 2.238-5 5v8.053c0 2.762 2.239 5 5 5z" fill="#fff"/></g><g><path d="m275.894 351.547c2.761 0 5-2.238 5-5v-8.053c0-2.762-2.239-5-5-5s-5 2.238-5 5v8.053c0 2.762 2.238 5 5 5z" fill="#fff"/></g><g><path d="m259 351.547c2.761 0 5-2.238 5-5v-8.053c0-2.762-2.239-5-5-5s-5 2.238-5 5v8.053c0 2.762 2.239 5 5 5z" fill="#fff"/></g><g><path d="m242.107 351.547c2.761 0 5-2.238 5-5v-8.053c0-2.762-2.239-5-5-5s-5 2.238-5 5v8.053c0 2.762 2.238 5 5 5z" fill="#fff"/></g></g></g></g></g><path d="m151.451 167.212h-13.793c-2.761 0-5 2.238-5 5s2.239 5 5 5h1.722l-5.258 5.258c-1.953 1.952-1.953 5.118 0 7.07.977.977 2.256 1.465 3.536 1.465s2.559-.488 3.536-1.465l5.258-5.258v1.723c0 2.762 2.239 5 5 5s5-2.238 5-5v-13.793c-.001-2.762-2.24-5-5.001-5z" fill="#ff8b00"/><g fill="#4d4dff"><path d="m464.763 274.455h-13.793c-2.761 0-5 2.238-5 5s2.239 5 5 5h1.722l-5.258 5.258c-1.953 1.952-1.953 5.118 0 7.07.977.977 2.256 1.465 3.536 1.465s2.559-.488 3.536-1.465l5.258-5.258v1.723c0 2.762 2.239 5 5 5s5-2.238 5-5v-13.793c-.001-2.762-2.24-5-5.001-5z"/><path d="m157.183 118.656h-13.793c-2.761 0-5 2.238-5 5s2.239 5 5 5h1.723l-5.259 5.259c-1.953 1.952-1.953 5.118 0 7.07.977.977 2.256 1.465 3.536 1.465s2.559-.488 3.536-1.465l5.258-5.258v1.723c0 2.762 2.239 5 5 5s5-2.238 5-5v-13.794c-.001-2.761-2.24-5-5.001-5z"/></g><g fill="#ff4d4d"><path d="m73.282 398.102c-1.953-1.953-5.118-1.953-7.071 0l-5.258 5.258v-1.723c0-2.762-2.239-5-5-5s-5 2.238-5 5v13.794c0 2.762 2.239 5 5 5h13.793c2.761 0 5-2.238 5-5s-2.239-5-5-5h-1.723l5.259-5.259c1.953-1.952 1.953-5.118 0-7.07z"/><path d="m397.285 151.607h-1.723l5.259-5.259c1.953-1.952 1.953-5.118 0-7.07-1.953-1.953-5.118-1.953-7.071 0l-5.258 5.258v-1.723c0-2.762-2.239-5-5-5s-5 2.238-5 5v13.794c0 2.762 2.239 5 5 5h13.793c2.761 0 5-2.238 5-5s-2.239-5-5-5z"/></g></g></g></svg>