<svg id="Layer_1" enable-background="new 0 0 512.004 512.004" height="512" viewBox="0 0 512.004 512.004" width="512" xmlns="http://www.w3.org/2000/svg"><g><g><path d="m60.026 187.339h327.624c.909 0 1.808.047 2.699.12v-39.02c-.891.073-1.79.12-2.699.12h-327.624c-.909 0-1.808-.047-2.699-.12v39.021c.891-.073 1.79-.121 2.699-.121z" fill="#6e60b8"/><g><path d="m111.656 148.559h-51.63c-.909 0-1.808-.047-2.699-.12v39.021c.891-.073 1.79-.12 2.699-.12h51.63z" fill="#6353b2"/></g><path d="m387.65 324.687h-327.624c-.909 0-1.808-.047-2.699-.12v39.021c.891-.073 1.79-.12 2.699-.12h327.624c.909 0 1.808.047 2.699.12v-39.02c-.891.071-1.79.119-2.699.119z" fill="#6e60b8"/><g><path d="m111.656 324.687h-51.63c-.909 0-1.808-.047-2.699-.12v39.021c.891-.073 1.79-.12 2.699-.12h51.63z" fill="#6353b2"/></g><path d="m387.65 7.511h-327.624c-18.186 0-33.066 14.88-33.066 33.066v78.616c0 18.186 14.88 33.066 33.066 33.066h327.624c18.186 0 33.066-14.88 33.066-33.066v-78.616c0-18.186-14.88-33.066-33.066-33.066z" fill="#8479c2"/><path d="m72.6 119.194v-78.617c0-18.186 14.88-33.066 33.066-33.066h-45.64c-18.186 0-33.066 14.88-33.066 33.066v78.616c0 18.186 14.88 33.066 33.066 33.066h45.641c-18.187 0-33.067-14.879-33.067-33.065z" fill="#6e60b8"/><path d="m382.926 37.878h-318.176c-4.1 0-7.423 3.323-7.423 7.423v69.169c0 4.1 3.323 7.423 7.423 7.423h318.177c4.1 0 7.423-3.323 7.423-7.423v-69.169c-.001-4.1-3.324-7.423-7.424-7.423z" fill="#6e60b8"/><path d="m102.967 114.47v-69.169c0-4.1 3.323-7.423 7.423-7.423h-45.64c-4.1 0-7.423 3.323-7.423 7.423v69.169c0 4.099 3.323 7.423 7.423 7.423h45.641c-4.101 0-7.424-3.324-7.424-7.423z" fill="#6353b2"/><circle cx="102.845" cy="79.885" fill="#ffe181" r="15.69"/><path d="m105.666 79.885c0-5.199 2.54-9.794 6.434-12.648-2.597-1.904-5.789-3.041-9.256-3.041-8.665 0-15.69 7.024-15.69 15.69s7.025 15.69 15.69 15.69c3.466 0 6.659-1.138 9.256-3.041-3.894-2.856-6.434-7.451-6.434-12.65z" fill="#fec458"/><circle cx="159.009" cy="79.885" fill="#ffe181" r="15.69"/><path d="m161.83 79.885c0-5.199 2.54-9.794 6.434-12.648-2.597-1.904-5.789-3.041-9.256-3.041-8.665 0-15.69 7.024-15.69 15.69s7.025 15.69 15.69 15.69c3.466 0 6.659-1.138 9.256-3.041-3.894-2.856-6.434-7.451-6.434-12.65z" fill="#fec458"/><circle cx="215.172" cy="79.885" fill="#ffe181" r="15.69"/><path d="m217.993 79.885c0-5.199 2.54-9.794 6.434-12.648-2.597-1.904-5.789-3.041-9.256-3.041-8.665 0-15.69 7.024-15.69 15.69s7.025 15.69 15.69 15.69c3.466 0 6.659-1.138 9.256-3.041-3.894-2.856-6.434-7.451-6.434-12.65z" fill="#fec458"/><path d="m387.65 185.157h-327.624c-18.186 0-33.066 14.88-33.066 33.066v78.616c0 18.186 14.88 33.066 33.066 33.066h327.624c18.186 0 33.066-14.88 33.066-33.066v-78.617c0-18.186-14.88-33.065-33.066-33.065z" fill="#8479c2"/><path d="m72.6 296.839v-78.616c0-18.186 14.88-33.066 33.066-33.066h-45.64c-18.186 0-33.066 14.88-33.066 33.066v78.616c0 18.186 14.88 33.066 33.066 33.066h45.641c-18.187 0-33.067-14.879-33.067-33.066z" fill="#6e60b8"/><path d="m382.926 215.524h-318.176c-4.1 0-7.423 3.323-7.423 7.423v69.169c0 4.1 3.323 7.423 7.423 7.423h318.177c4.1 0 7.423-3.323 7.423-7.423v-69.169c-.001-4.1-3.324-7.423-7.424-7.423z" fill="#6e60b8"/><path d="m102.967 292.116v-69.169c0-4.1 3.323-7.423 7.423-7.423h-45.64c-4.1 0-7.423 3.323-7.423 7.423v69.169c0 4.099 3.323 7.423 7.423 7.423h45.641c-4.101-.001-7.424-3.324-7.424-7.423z" fill="#6353b2"/><circle cx="102.845" cy="257.531" fill="#ffe181" r="15.69"/><path d="m105.666 257.531c0-5.199 2.54-9.794 6.434-12.648-2.597-1.904-5.789-3.041-9.256-3.041-8.665 0-15.69 7.024-15.69 15.69 0 8.665 7.025 15.69 15.69 15.69 3.466 0 6.659-1.138 9.256-3.041-3.894-2.856-6.434-7.451-6.434-12.65z" fill="#fec458"/><circle cx="159.009" cy="257.531" fill="#ffe181" r="15.69"/><path d="m161.83 257.531c0-5.199 2.54-9.794 6.434-12.648-2.597-1.904-5.789-3.041-9.256-3.041-8.665 0-15.69 7.024-15.69 15.69 0 8.665 7.025 15.69 15.69 15.69 3.466 0 6.659-1.138 9.256-3.041-3.894-2.856-6.434-7.451-6.434-12.65z" fill="#fec458"/><circle cx="215.172" cy="257.531" fill="#ffe181" r="15.69"/><path d="m217.993 257.531c0-5.199 2.54-9.794 6.434-12.648-2.597-1.904-5.789-3.041-9.256-3.041-8.665 0-15.69 7.024-15.69 15.69 0 8.665 7.025 15.69 15.69 15.69 3.466 0 6.659-1.138 9.256-3.041-3.894-2.856-6.434-7.451-6.434-12.65z" fill="#fec458"/><path d="m387.65 359.766h-327.624c-18.186 0-33.066 14.88-33.066 33.066v78.616c0 18.186 14.88 33.066 33.066 33.066h327.624c18.186 0 33.066-14.88 33.066-33.066v-78.617c0-18.185-14.88-33.065-33.066-33.065z" fill="#8479c2"/><path d="m72.6 471.449v-78.616c0-18.186 14.88-33.066 33.066-33.066h-45.64c-18.186 0-33.066 14.88-33.066 33.066v78.616c0 18.186 14.88 33.066 33.066 33.066h45.641c-18.187-.001-33.067-14.88-33.067-33.066z" fill="#6e60b8"/><path d="m382.926 390.133h-318.176c-4.1 0-7.423 3.323-7.423 7.423v69.169c0 4.1 3.323 7.423 7.423 7.423h318.177c4.1 0 7.423-3.323 7.423-7.423v-69.169c-.001-4.1-3.324-7.423-7.424-7.423z" fill="#6e60b8"/><path d="m102.967 466.725v-69.169c0-4.1 3.323-7.423 7.423-7.423h-45.64c-4.1 0-7.423 3.323-7.423 7.423v69.169c0 4.099 3.323 7.423 7.423 7.423h45.641c-4.101 0-7.424-3.324-7.424-7.423z" fill="#6353b2"/><circle cx="102.845" cy="432.14" fill="#ffe181" r="15.69"/><path d="m105.666 432.14c0-5.199 2.54-9.794 6.434-12.648-2.597-1.904-5.789-3.041-9.256-3.041-8.665 0-15.69 7.024-15.69 15.69 0 8.665 7.025 15.69 15.69 15.69 3.466 0 6.659-1.138 9.256-3.041-3.894-2.856-6.434-7.451-6.434-12.65z" fill="#fec458"/><circle cx="159.009" cy="432.14" fill="#ffe181" r="15.69"/><path d="m161.83 432.14c0-5.199 2.54-9.794 6.434-12.648-2.597-1.904-5.789-3.041-9.256-3.041-8.665 0-15.69 7.024-15.69 15.69 0 8.665 7.025 15.69 15.69 15.69 3.466 0 6.659-1.138 9.256-3.041-3.894-2.856-6.434-7.451-6.434-12.65z" fill="#fec458"/><circle cx="215.172" cy="432.14" fill="#ffe181" r="15.69"/><path d="m217.993 432.14c0-5.199 2.54-9.794 6.434-12.648-2.597-1.904-5.789-3.041-9.256-3.041-8.665 0-15.69 7.024-15.69 15.69 0 8.665 7.025 15.69 15.69 15.69 3.466 0 6.659-1.138 9.256-3.041-3.894-2.856-6.434-7.451-6.434-12.65z" fill="#fec458"/><path d="m355.387 189.178c-12.315-4.869-23.371-12.233-32.545-21.47v119.955c0 8.12 8.93 13.072 15.818 8.771l16.728-10.446v-96.81z" fill="#ff4756"/><path d="m425.312 189.178v96.81l16.728 10.446c6.887 4.301 15.818-.65 15.818-8.771v-119.955c-9.175 9.237-20.231 16.601-32.546 21.47z" fill="#ff656f"/><path d="m426.789 188.574c-11.224 4.659-23.53 7.236-36.44 7.236s-25.216-2.578-36.44-7.236v98.337l30.963-19.336c3.352-2.093 7.603-2.093 10.954 0l30.963 19.336z" fill="#ff7f87"/><path d="m388.545 195.787c-12.252-.229-23.936-2.773-34.636-7.214v98.337l30.963-19.336c1.143-.714 2.393-1.164 3.673-1.391z" fill="#ff656f"/><circle cx="390.349" cy="102.661" fill="#ffe181" r="95.149"/><path d="m329.713 102.661c0-46.656 33.583-85.466 77.893-93.584-5.597-1.025-11.363-1.565-17.256-1.565-52.55 0-95.149 42.6-95.149 95.149s42.6 95.149 95.149 95.149c5.893 0 11.66-.54 17.256-1.565-44.311-8.119-77.893-46.928-77.893-93.584z" fill="#fec458"/><circle cx="390.349" cy="102.661" fill="#fec458" r="67.508"/><path d="m357.354 102.661c0-31.318 21.329-57.647 50.252-65.273-5.509-1.453-11.291-2.235-17.256-2.235-37.284 0-67.508 30.224-67.508 67.508 0 37.283 30.224 67.508 67.508 67.508 5.966 0 11.747-.782 17.256-2.235-28.923-7.627-50.252-33.956-50.252-65.273z" fill="#f9ab49"/><path d="m423.485 95.74c2.697-2.628 1.209-7.208-2.518-7.75l-17.224-2.503c-1.48-.215-2.759-1.144-3.421-2.485l-7.703-15.608c-1.667-3.377-6.482-3.377-8.149 0l-7.703 15.608c-.662 1.341-1.941 2.27-3.421 2.485l-17.224 2.503c-3.727.542-5.215 5.121-2.518 7.75l12.463 12.149c1.071 1.044 1.56 2.548 1.307 4.022l-2.942 17.154c-.637 3.712 3.259 6.542 6.592 4.79l15.406-8.099c1.324-.696 2.905-.696 4.229 0l15.406 8.099c3.333 1.753 7.229-1.078 6.592-4.79l-2.942-17.154c-.253-1.474.236-2.978 1.307-4.022z" fill="#f9ab49"/><g><g><path d="m391.625 111.91c.253-1.474-.236-2.978-1.307-4.022l-12.463-12.148c-2.697-2.628-1.209-7.208 2.518-7.75l17.224-2.503c1.255-.182 2.361-.882 3.073-1.906-.128-.184-.247-.375-.348-.579l-7.703-15.608c-1.667-3.377-6.482-3.377-8.149 0l-7.703 15.608c-.662 1.341-1.941 2.271-3.421 2.485l-17.224 2.503c-3.727.542-5.215 5.122-2.518 7.75l12.463 12.149c1.071 1.044 1.56 2.548 1.307 4.022l-2.942 17.154c-.637 3.712 3.259 6.542 6.592 4.79l15.406-8.099c.901-.474 1.919-.617 2.896-.446z" fill="#f49227"/></g></g></g><g><path d="m397.622 466.714v-69.169c0-8.229-6.694-14.923-14.923-14.923h-318.177c-8.229 0-14.923 6.694-14.923 14.923v69.169c0 8.229 6.694 14.923 14.923 14.923h318.177c8.229 0 14.923-6.695 14.923-14.923zm-15-.077h-318.022v-69.015h318.022z"/><path d="m102.618 56.685c-12.787 0-23.189 10.403-23.189 23.189s10.402 23.189 23.189 23.189 23.189-10.403 23.189-23.189-10.402-23.189-23.189-23.189zm0 31.379c-4.516 0-8.189-3.674-8.189-8.189s3.674-8.189 8.189-8.189 8.189 3.674 8.189 8.189-3.673 8.189-8.189 8.189z"/><path d="m158.781 56.685c-12.787 0-23.189 10.403-23.189 23.189s10.402 23.189 23.189 23.189 23.189-10.403 23.189-23.189-10.402-23.189-23.189-23.189zm0 31.379c-4.516 0-8.189-3.674-8.189-8.189s3.674-8.189 8.189-8.189 8.189 3.674 8.189 8.189-3.673 8.189-8.189 8.189z"/><path d="m214.945 56.685c-12.787 0-23.19 10.403-23.19 23.189s10.403 23.189 23.19 23.189 23.189-10.403 23.189-23.189-10.402-23.189-23.189-23.189zm0 31.379c-4.517 0-8.19-3.674-8.19-8.189s3.674-8.189 8.19-8.189 8.189 3.674 8.189 8.189-3.673 8.189-8.189 8.189z"/><path d="m295.647 250.021h-33.066c-4.143 0-7.5 3.358-7.5 7.5s3.357 7.5 7.5 7.5h33.066c4.143 0 7.5-3.358 7.5-7.5s-3.357-7.5-7.5-7.5z"/><path d="m102.618 234.331c-12.787 0-23.189 10.403-23.189 23.19s10.402 23.189 23.189 23.189 23.189-10.403 23.189-23.189c.001-12.788-10.402-23.19-23.189-23.19zm0 31.379c-4.516 0-8.189-3.674-8.189-8.189 0-4.516 3.674-8.19 8.189-8.19s8.189 3.674 8.189 8.19c.001 4.515-3.673 8.189-8.189 8.189z"/><path d="m158.781 234.331c-12.787 0-23.189 10.403-23.189 23.19s10.402 23.189 23.189 23.189 23.189-10.403 23.189-23.189c.001-12.788-10.402-23.19-23.189-23.19zm0 31.379c-4.516 0-8.189-3.674-8.189-8.189 0-4.516 3.674-8.19 8.189-8.19s8.189 3.674 8.189 8.19c.001 4.515-3.673 8.189-8.189 8.189z"/><path d="m214.945 234.331c-12.787 0-23.19 10.403-23.19 23.19s10.403 23.189 23.19 23.189 23.189-10.403 23.189-23.189c.001-12.788-10.402-23.19-23.189-23.19zm0 31.379c-4.517 0-8.19-3.674-8.19-8.189 0-4.516 3.674-8.19 8.19-8.19s8.189 3.674 8.189 8.19c.001 4.515-3.673 8.189-8.189 8.189z"/><path d="m262.581 439.63h33.066c4.143 0 7.5-3.358 7.5-7.5s-3.357-7.5-7.5-7.5h-33.066c-4.143 0-7.5 3.358-7.5 7.5s3.357 7.5 7.5 7.5z"/><path d="m327.364 439.63h31.716c4.143 0 7.5-3.358 7.5-7.5s-3.357-7.5-7.5-7.5h-31.716c-4.143 0-7.5 3.358-7.5 7.5s3.358 7.5 7.5 7.5z"/><path d="m102.618 455.319c12.787 0 23.189-10.403 23.189-23.189 0-12.787-10.402-23.19-23.189-23.19s-23.189 10.403-23.189 23.19 10.402 23.189 23.189 23.189zm0-31.379c4.516 0 8.189 3.674 8.189 8.19s-3.674 8.189-8.189 8.189-8.189-3.674-8.189-8.189c0-4.516 3.674-8.19 8.189-8.19z"/><path d="m158.781 455.319c12.787 0 23.189-10.403 23.189-23.189 0-12.787-10.402-23.19-23.189-23.19s-23.189 10.403-23.189 23.19 10.402 23.189 23.189 23.189zm0-31.379c4.516 0 8.189 3.674 8.189 8.19s-3.674 8.189-8.189 8.189-8.189-3.674-8.189-8.189c0-4.516 3.674-8.19 8.189-8.19z"/><path d="m214.945 455.319c12.787 0 23.189-10.403 23.189-23.189 0-12.787-10.402-23.19-23.189-23.19s-23.19 10.403-23.19 23.19 10.403 23.189 23.19 23.189zm0-31.379c4.516 0 8.189 3.674 8.189 8.19s-3.674 8.189-8.189 8.189c-4.517 0-8.19-3.674-8.19-8.189 0-4.516 3.674-8.19 8.19-8.19z"/><path d="m390.122 177.658c41.359 0 75.008-33.648 75.008-75.008 0-41.359-33.648-75.008-75.008-75.008s-75.008 33.648-75.008 75.008c0 41.359 33.649 75.008 75.008 75.008zm0-135.016c33.089 0 60.008 26.919 60.008 60.008s-26.919 60.008-60.008 60.008-60.008-26.919-60.008-60.008 26.919-60.008 60.008-60.008z"/><path d="m348.143 101.1 11.351 11.063-2.679 15.623c-.781 4.551 1.055 9.065 4.791 11.779 2.11 1.534 4.58 2.313 7.067 2.313 1.913 0 3.838-.461 5.615-1.396l14.029-7.376 14.03 7.375c4.087 2.148 8.946 1.798 12.683-.917s5.572-7.228 4.791-11.779l-2.68-15.623 11.352-11.063c3.307-3.224 4.475-7.955 3.047-12.346-1.427-4.392-5.152-7.533-9.723-8.196l-15.686-2.279-7.015-14.213c-2.043-4.141-6.181-6.714-10.798-6.714-.001 0-.001 0-.002 0-4.617 0-8.756 2.572-10.8 6.714l-7.015 14.213-15.686 2.279c-4.57.664-8.296 3.805-9.723 8.197s-.256 9.123 3.051 12.346zm26.057-8.202c3.922-.571 7.311-3.033 9.066-6.588l5.051-10.235 5.053 10.237c1.755 3.553 5.144 6.016 9.067 6.586l11.295 1.641-8.175 7.969c-2.836 2.766-4.131 6.749-3.462 10.659l1.929 11.25-10.103-5.311c-3.508-1.845-7.697-1.845-11.209 0l-10.103 5.312 1.929-11.249c.671-3.909-.624-7.895-3.463-10.661l-8.174-7.967z"/><path d="m59.799 512.004h137.646c4.143 0 7.5-3.358 7.5-7.5s-3.357-7.5-7.5-7.5h-137.646c-14.098 0-25.566-11.469-25.566-25.566v-78.616c0-13.362 10.306-24.356 23.387-25.467.03-.002.061-.001.091-.004.385-.031.745-.054 1.085-.07.211-.008.423-.013.636-.016.121-.002.252-.009.368-.009h327.624c14.028 0 25.566 11.415 25.566 25.566v78.616c0 14.097-11.469 25.566-25.566 25.566h-154.979c-4.143 0-7.5 3.358-7.5 7.5s3.357 7.5 7.5 7.5h154.978c22.368 0 40.566-18.198 40.566-40.566v-78.616c0-18.847-12.92-34.731-30.367-39.266v-18.979c17.043-4.43 29.754-19.692 30.334-37.964l9.884 6.172c11.861 7.407 27.29-1.141 27.29-15.132v-38.446c0-4.142-3.357-7.5-7.5-7.5s-7.5 3.358-7.5 7.5v38.446c0 2.245-2.445 3.594-4.345 2.409l-11.723-7.321v-87.28c5.608-2.66 10.989-5.825 16.067-9.501v28.247c0 4.142 3.357 7.5 7.5 7.5s7.5-3.358 7.5-7.5v-41.561c17.136-18.351 27.642-42.968 27.642-69.997 0-53.562-42.01-102.649-105.348-102.649h-327.624c-22.368 0-40.567 18.198-40.567 40.566v78.616c0 18.847 12.92 34.731 30.367 39.266v18.98c-17.447 4.535-30.367 20.419-30.367 39.266v78.616c0 18.847 12.92 34.731 30.367 39.266v18.979c-17.447 4.535-30.367 20.419-30.367 39.266v78.616c0 22.369 18.199 40.567 40.567 40.567zm322.823-159.749h-318.022v-16.379h318.022zm36.441-78.882-19.49-12.172c-5.661-3.534-13.042-3.661-18.9 0l-19.49 12.171v-72.202c9.322 2.724 19.223 4.129 28.94 4.129 9.913 0 19.774-1.451 28.94-4.129zm-36.441 4.296v12.84h-20.562c2.279-1.422 17.836-11.137 20.562-12.84zm7.5-262.669c48.33 0 87.649 39.319 87.649 87.649 0 48.012-38.986 87.649-87.649 87.649-48.191 0-87.649-39.189-87.649-87.649 0-47.874 39.372-87.649 87.649-87.649zm-43.94 180.461v87.28l-11.724 7.321c-.006.004-.012.005-.018.009-1.892 1.161-4.326-.16-4.326-2.419 0-12.481 0-90.362 0-101.693 5.079 3.676 10.459 6.842 16.068 9.502zm-30.837 95.048h-250.745v-69.015h250.515v66.158c-.001.925.099 2.048.23 2.857zm-.231-114.381h-250.514v-16.379h240.212c3.077 4.588 6.526 8.932 10.303 12.973v3.406zm-52.533-88.753h26.019c-.745 5.013-1.127 10.374-1.127 15.275 0 3.989.258 8.166.666 11.732h-223.539v-69.015h240.322c-5.636 8.35-9.979 17.437-12.921 27.007h-29.42c-4.143 0-7.5 3.358-7.5 7.5s3.357 7.501 7.5 7.501zm-228.349 31.808v-78.617c0-14.097 11.469-25.566 25.567-25.566h276.835c-6.979 4.273-13.483 9.419-19.384 15.367h-252.728c-8.229 0-14.923 6.694-14.923 14.923v69.169c0 8.229 6.694 14.923 14.923 14.923h226.481c1.338 4.968 3.228 10.357 5.481 15.367h-236.685c-.343 0-.682-.012-1.022-.026-.335-.016-.687-.038-1.063-.069-.019-.001-.038 0-.057-.002-13.098-1.092-23.425-12.094-23.425-25.469zm0 176.127v-78.616c0-13.367 10.313-24.364 23.4-25.468.026-.002.051-.001.077-.003.381-.031.736-.054 1.073-.069.337-.013.675-.026 1.016-.026h255.315v15.367h-250.591c-8.229 0-14.923 6.694-14.923 14.923v69.169c0 8.229 6.694 14.923 14.923 14.923h318.177c8.229 0 14.923-6.694 14.923-14.923v-12.917l15.367 9.596v8.044c0 14.146-11.534 25.566-25.566 25.566h-327.624c-.343 0-.682-.012-1.022-.026-.335-.016-.687-.038-1.063-.069-.019-.001-.038 0-.057-.002-13.098-1.092-23.425-12.094-23.425-25.469z"/></g></g></svg>