<svg id="Layer_5" enable-background="new 0 0 64 64" height="512" viewBox="0 0 64 64" width="512" xmlns="http://www.w3.org/2000/svg"><g><g><g><circle cx="11" cy="11" fill="#b4dd7f" r="2"/></g><g><path d="m18.77 5.07c.15.28.23.59.23.93 0 1.1-.9 2-2 2s-2-.9-2-2 .9-2 2-2c.76 0 1.43.43 1.77 1.07z" fill="#b4dd7f"/></g><g><circle cx="6" cy="17" fill="#b4dd7f" r="2"/></g><g><path d="m45.23 58.93c-.15-.28-.23-.59-.23-.93 0-1.1.9-2 2-2s2 .9 2 2-.9 2-2 2c-.76 0-1.43-.43-1.77-1.07z" fill="#b4dd7f"/></g><g><circle cx="58" cy="47" fill="#b4dd7f" r="2"/></g><g><circle cx="53" cy="53" fill="#b4dd7f" r="2"/></g><g><path d="m42 20h-20c-1.1 0-2 .9-2 2v20c0 1.1.9 2 2 2h20c1.1 0 2-.9 2-2v-20c0-1.1-.9-2-2-2z" fill="#fcd770"/></g><g><path d="m32 6c4.42 0 8 3.58 8 8 0 2.39-1.05 4.54-2.71 6 0 .01 0 .01-.01 0-1.41 1.24-3.26 2-5.28 2s-3.87-.76-5.28-2c-.01.01-.01.01-.01 0-1.66-1.46-2.71-3.61-2.71-6 0-4.42 3.58-8 8-8z" fill="#e6e9ed"/></g><g><path d="m46 48h-28c-.55 0-1 .45-1 1v2c0 .55.45 1 1 1h28c.55 0 1-.45 1-1v-2c0-.55-.45-1-1-1z" fill="#ff826e"/></g></g><g><path d="m16 49v2c0 1.103.897 2 2 2h28c1.103 0 2-.897 2-2v-2c0-1.103-.897-2-2-2h-28c-1.103 0-2 .897-2 2zm2 0h4v2h-4zm16 2h-4v-2h4zm2-2h4v2h-4zm-8 2h-4v-2h4zm18.001 0h-4.001v-2h4z"/><path d="m36.707 11.707-1.414-1.414-5.293 5.293-1.293-1.293-1.414 1.414 2.707 2.707z"/><path d="m19 22v20c0 1.654 1.346 3 3 3h20c1.654 0 3-1.346 3-3v-20c0-1.654-1.346-3-3-3h-2.522c.96-1.431 1.522-3.151 1.522-5 0-4.962-4.038-9-9-9s-9 4.038-9 9c0 1.849.562 3.569 1.522 5h-2.522c-1.654 0-3 1.346-3 3zm2 7h22v6h-22zm21 14h-20c-.551 0-1-.449-1-1v-5h22v5c0 .551-.449 1-1 1zm1-21v5h-22v-5c0-.551.449-1 1-1h4.356c1.545 1.248 3.508 2 5.644 2s4.099-.752 5.644-2h4.356c.551 0 1 .449 1 1zm-11-15c3.86 0 7 3.14 7 7s-3.14 7-7 7-7-3.14-7-7 3.14-7 7-7z"/><path d="m31 25h2v-2h-1-1z"/><path d="m23 23h2v2h-2z"/><path d="m27 23h2v2h-2z"/><path d="m31 39h2v2h-2z"/><path d="m23 39h2v2h-2z"/><path d="m27 39h2v2h-2z"/><path d="m31 31h2v2h-2z"/><path d="m35 31h2v2h-2z"/><path d="m39 31h2v2h-2z"/><path d="m47 55c-1.654 0-3 1.346-3 3 0 .128.022.25.038.373-3.79 1.736-7.833 2.627-12.038 2.627-10.329 0-19.978-5.671-25.131-14.606l2.935.587.393-1.961-5.981-1.196-1.196 5.98 1.961.393.463-2.313c5.574 9.259 15.708 15.116 26.556 15.116 4.517 0 8.861-.962 12.931-2.837.539.516 1.266.837 2.069.837 1.654 0 3-1.346 3-3s-1.346-3-3-3zm0 4c-.551 0-1-.449-1-1s.449-1 1-1 1 .449 1 1-.449 1-1 1z"/><path d="m53 50c-1.654 0-3 1.346-3 3s1.346 3 3 3 3-1.346 3-3-1.346-3-3-3zm0 4c-.551 0-1-.449-1-1s.449-1 1-1 1 .449 1 1-.449 1-1 1z"/><path d="m58 44c-1.654 0-3 1.346-3 3s1.346 3 3 3 3-1.346 3-3-1.346-3-3-3zm0 4c-.551 0-1-.449-1-1s.449-1 1-1 1 .449 1 1-.449 1-1 1z"/><path d="m17 9c1.654 0 3-1.346 3-3 0-.128-.022-.25-.038-.373 3.79-1.736 7.833-2.627 12.038-2.627 10.329 0 19.979 5.67 25.131 14.606l-2.935-.587-.393 1.961 5.981 1.196 1.196-5.98-1.961-.393-.463 2.313c-5.573-9.259-15.708-15.116-26.556-15.116-4.517 0-8.861.962-12.931 2.837-.539-.516-1.266-.837-2.069-.837-1.654 0-3 1.346-3 3s1.346 3 3 3zm0-4c.551 0 1 .449 1 1s-.449 1-1 1-1-.449-1-1 .449-1 1-1z"/><path d="m11 14c1.654 0 3-1.346 3-3s-1.346-3-3-3-3 1.346-3 3 1.346 3 3 3zm0-4c.551 0 1 .449 1 1s-.449 1-1 1-1-.449-1-1 .449-1 1-1z"/><path d="m6 20c1.654 0 3-1.346 3-3s-1.346-3-3-3-3 1.346-3 3 1.346 3 3 3zm0-4c.551 0 1 .449 1 1s-.449 1-1 1-1-.449-1-1 .449-1 1-1z"/></g></g></svg>