<svg id="Layer_5" enable-background="new 0 0 64 64" height="512" viewBox="0 0 64 64" width="512" xmlns="http://www.w3.org/2000/svg" xmlns:xlink="http://www.w3.org/1999/xlink"><linearGradient id="SVGID_1_" gradientUnits="userSpaceOnUse" x1="32" x2="32" y1="63" y2="1"><stop offset="0" stop-color="#9f2fff"/><stop offset="1" stop-color="#0bb1d3"/></linearGradient><path d="m58.557 16.117c-5.574-9.26-15.709-15.117-26.557-15.117-4.517 0-8.861.962-12.931 2.837-.539-.516-1.266-.837-2.069-.837-1.654 0-3 1.346-3 3s1.346 3 3 3 3-1.346 3-3c0-.128-.022-.25-.038-.373 3.79-1.736 7.833-2.627 12.038-2.627 10.329 0 19.979 5.67 25.131 14.606l-2.935-.587-.393 1.961 5.981 1.196 1.196-5.98-1.961-.393zm-41.557-9.117c-.551 0-1-.449-1-1s.449-1 1-1 1 .449 1 1-.449 1-1 1zm-10.131 39.394 2.935.587.393-1.961-5.981-1.196-1.196 5.98 1.961.393.463-2.313c5.574 9.259 15.708 15.116 26.556 15.116 4.517 0 8.861-.962 12.931-2.837.539.516 1.266.837 2.069.837 1.654 0 3-1.346 3-3s-1.346-3-3-3-3 1.346-3 3c0 .128.022.25.038.373-3.79 1.736-7.833 2.627-12.038 2.627-10.329 0-19.978-5.671-25.131-14.606zm40.131 10.606c.551 0 1 .449 1 1s-.449 1-1 1-1-.449-1-1 .449-1 1-1zm-31-8v2c0 1.103.897 2 2 2h28c1.103 0 2-.897 2-2v-2c0-1.103-.897-2-2-2h-28c-1.103 0-2 .897-2 2zm2 0h4v2h-4zm16 2h-4v-2h4zm2-2h4v2h-4zm-8 2h-4v-2h4zm18.001 0h-4.001v-2h4zm-16.001-32.586-2.707-2.707 1.414-1.414 1.293 1.293 5.293-5.293 1.414 1.414zm-11 3.586v20c0 1.654 1.346 3 3 3h20c1.654 0 3-1.346 3-3v-20c0-1.654-1.346-3-3-3h-2.522c.96-1.431 1.522-3.151 1.522-5 0-4.962-4.038-9-9-9s-9 4.038-9 9c0 1.849.562 3.569 1.522 5h-2.522c-1.654 0-3 1.346-3 3zm2 7h22v6h-22zm21 14h-20c-.551 0-1-.449-1-1v-5h22v5c0 .551-.449 1-1 1zm1-21v5h-22v-5c0-.551.449-1 1-1h4.356c1.545 1.248 3.508 2 5.644 2s4.099-.752 5.644-2h4.356c.551 0 1 .449 1 1zm-11-15c3.86 0 7 3.14 7 7s-3.14 7-7 7-7-3.14-7-7 3.14-7 7-7zm-5 16h2v2h-2zm4 0h1 1v2h-2zm-8 0h2v2h-2zm0 16h2v2h-2zm8 0h2v2h-2zm-4 0h2v2h-2zm8-8h2v2h-2zm-4 0h2v2h-2zm10 0v2h-2v-2zm12 19c-1.654 0-3 1.346-3 3s1.346 3 3 3 3-1.346 3-3-1.346-3-3-3zm0 4c-.551 0-1-.449-1-1s.449-1 1-1 1 .449 1 1-.449 1-1 1zm8-7c0-1.654-1.346-3-3-3s-3 1.346-3 3 1.346 3 3 3 3-1.346 3-3zm-4 0c0-.551.449-1 1-1s1 .449 1 1-.449 1-1 1-1-.449-1-1zm-46-39c-1.654 0-3 1.346-3 3s1.346 3 3 3 3-1.346 3-3-1.346-3-3-3zm0 4c-.551 0-1-.449-1-1s.449-1 1-1 1 .449 1 1-.449 1-1 1zm-8 5c0 1.654 1.346 3 3 3s3-1.346 3-3-1.346-3-3-3-3 1.346-3 3zm4 0c0 .551-.449 1-1 1s-1-.449-1-1 .449-1 1-1 1 .449 1 1z" fill="url(#SVGID_1_)"/></svg>