<svg id="delete" enable-background="new 0 0 300 300" height="512" viewBox="0 0 300 300" width="512" xmlns="http://www.w3.org/2000/svg" xmlns:xlink="http://www.w3.org/1999/xlink"><linearGradient id="SVGID_1_" gradientUnits="userSpaceOnUse" x1="67.171" x2="255.309" y1="240.094" y2="51.956"><stop offset="0" stop-color="#107eff"/><stop offset="1" stop-color="#8f16ff"/></linearGradient><g><path d="m244 47.265c-8.824 0-16 7.178-16 16s7.176 16 16 16 16-7.178 16-16-7.176-16-16-16zm0 24c-4.41 0-8-3.588-8-8s3.59-8 8-8 8 3.588 8 8-3.59 8-8 8zm-30.529-34c0-2.502 2.028-4.53 4.529-4.53s4.529 2.028 4.529 4.53c0 2.501-2.028 4.529-4.529 4.529s-4.529-2.028-4.529-4.529zm-32 12c0-2.502 2.028-4.53 4.529-4.53s4.529 2.028 4.529 4.53c0 2.501-2.028 4.529-4.529 4.529s-4.529-2.028-4.529-4.529zm58.529 66h-20v-20c0-2.209-1.789-4-4-4h-24v-24c0-2.209-1.789-4-4-4h-144c-2.211 0-4 1.791-4 4v144c0 2.209 1.789 4 4 4h24v24c0 2.209 1.789 4 4 4h20v20c0 2.209 1.789 4 4 4h144c2.211 0 4-1.791 4-4v-144c0-2.209-1.789-4-4-4zm-4 8v130.344l-16-16v-114.344zm-188-52h136v136h-136zm28 144h110.344l20 20h-130.344zm24 27.996h114.344l16 15.754h-130.344zm61.254-132.279-16.969-16.971c-.75-.75-1.766-1.172-2.828-1.172s-2.078.422-2.828 1.172l-22.629 22.627-22.629-22.627c-1.5-1.5-4.156-1.5-5.656 0l-16.969 16.971c-1.562 1.562-1.562 4.094 0 5.656l22.629 22.627-22.629 22.627c-1.562 1.562-1.562 4.094 0 5.656l16.969 16.971c.75.75 1.766 1.172 2.828 1.172s2.078-.422 2.828-1.172l22.629-22.627 22.629 22.627c.75.75 1.766 1.172 2.828 1.172s2.078-.422 2.828-1.172l16.969-16.971c1.562-1.562 1.562-4.094 0-5.656l-22.629-22.627 22.629-22.627c1.562-1.563 1.562-4.094 0-5.656zm-31.113 25.455c-.75.75-1.172 1.768-1.172 2.828s.422 2.078 1.172 2.828l22.629 22.627-11.312 11.314-22.629-22.627c-.781-.781-1.805-1.172-2.828-1.172s-2.047.391-2.828 1.172l-22.629 22.627-11.314-11.314 22.629-22.627c.75-.75 1.172-1.768 1.172-2.828s-.422-2.078-1.172-2.828l-22.629-22.627 11.312-11.314 22.629 22.627c1.562 1.562 4.094 1.562 5.656 0l22.629-22.627 11.312 11.314z" fill="url(#SVGID_1_)"/></g></svg>