<svg id="delete" enable-background="new 0 0 300 300" height="512" viewBox="0 0 300 300" width="512" xmlns="http://www.w3.org/2000/svg"><g><circle cx="124" cy="122.828" fill="#ffc7c7" r="86"/><g fill="#4c241d"><path d="m250 80.828c-6.617 0-12-5.383-12-12s5.383-12 12-12 12 5.383 12 12-5.383 12-12 12zm0-16c-2.207 0-4 1.793-4 4s1.793 4 4 4 4-1.793 4-4-1.793-4-4-4z"/><circle cx="46" cy="120.828" r="4"/><path d="m131.656 50.484c-1.023 0-2.047-.391-2.828-1.172l-11.312-11.312c-1.562-1.562-1.562-4.094 0-5.656s4.094-1.562 5.656 0l11.312 11.312c1.562 1.562 1.562 4.094 0 5.656-.781.782-1.804 1.172-2.828 1.172z"/><path d="m120.344 50.484c-1.023 0-2.047-.391-2.828-1.172-1.562-1.562-1.562-4.094 0-5.656l11.312-11.312c1.562-1.562 4.094-1.562 5.656 0s1.562 4.094 0 5.656l-11.312 11.312c-.781.782-1.805 1.172-2.828 1.172z"/></g><g><path d="m215.598 264.828h-127.196c-3.536 0-6.402-2.866-6.402-6.402v-161.598h140v161.598c0 3.536-2.866 6.402-6.402 6.402z" fill="#e2e2e2"/><path d="m215.598 268.828h-127.196c-5.734 0-10.402-4.668-10.402-10.402v-161.598c0-2.211 1.789-4 4-4h140c2.211 0 4 1.789 4 4v161.598c0 5.734-4.668 10.402-10.402 10.402zm-129.598-168v157.598c0 1.324 1.078 2.402 2.402 2.402h127.195c1.324 0 2.402-1.078 2.402-2.402v-157.598z" fill="#4c241d"/></g><g><path d="m116 252.828c-3.314 0-6-2.686-6-6v-120c0-3.314 2.686-6 6-6 3.314 0 6 2.686 6 6v120c0 3.314-2.686 6-6 6z" fill="#6b4f5b"/><path d="m116 256.828c-5.516 0-10-4.484-10-10v-120c0-5.516 4.484-10 10-10s10 4.484 10 10v120c0 5.516-4.484 10-10 10zm0-132c-1.102 0-2 .898-2 2v120c0 1.102.898 2 2 2s2-.898 2-2v-120c0-1.101-.898-2-2-2z" fill="#4c241d"/></g><g><path d="m152 252.828c-3.314 0-6-2.686-6-6v-120c0-3.314 2.686-6 6-6 3.314 0 6 2.686 6 6v120c0 3.314-2.686 6-6 6z" fill="#6b4f5b"/><path d="m152 256.828c-5.516 0-10-4.484-10-10v-120c0-5.516 4.484-10 10-10s10 4.484 10 10v120c0 5.516-4.484 10-10 10zm0-132c-1.102 0-2 .898-2 2v120c0 1.102.898 2 2 2s2-.898 2-2v-120c0-1.101-.898-2-2-2z" fill="#4c241d"/></g><g><path d="m188 252.828c-3.314 0-6-2.686-6-6v-120c0-3.314 2.686-6 6-6 3.314 0 6 2.686 6 6v120c0 3.314-2.686 6-6 6z" fill="#6b4f5b"/><path d="m188 256.828c-5.516 0-10-4.484-10-10v-120c0-5.516 4.484-10 10-10s10 4.484 10 10v120c0 5.516-4.484 10-10 10zm0-132c-1.102 0-2 .898-2 2v120c0 1.102.898 2 2 2s2-.898 2-2v-120c0-1.101-.898-2-2-2z" fill="#4c241d"/></g><path d="m186 100.828h-68c-2.211 0-4-1.789-4-4v-13.992c0-9.93 8.078-18.008 18.008-18.008h39.984c9.93 0 18.008 8.078 18.008 18.008v13.992c0 2.211-1.789 4-4 4zm-64-8h60v-9.992c0-5.52-4.488-10.008-10.008-10.008h-39.984c-5.52 0-10.008 4.488-10.008 10.008z" fill="#4c241d"/><g><path d="m70 96.828h164v12h-164z" fill="#e2e2e2"/><path d="m234 112.828h-164c-2.211 0-4-1.789-4-4v-12c0-2.211 1.789-4 4-4h164c2.211 0 4 1.789 4 4v12c0 2.211-1.789 4-4 4zm-160-8h156v-4h-156z" fill="#4c241d"/></g></g></svg>