<?xml version="1.0"?>
<svg xmlns="http://www.w3.org/2000/svg" xmlns:xlink="http://www.w3.org/1999/xlink" id="Gradient" viewBox="0 0 512 512" width="512" height="512"><defs><linearGradient id="JShine" x1="256" y1="496" x2="256" y2="16" gradientUnits="userSpaceOnUse"><stop offset="0" stop-color="#12c2e9"/><stop offset="0.056" stop-color="#19bfe9"/><stop offset="0.137" stop-color="#2db6ea"/><stop offset="0.235" stop-color="#4da7ea"/><stop offset="0.344" stop-color="#7993eb"/><stop offset="0.462" stop-color="#b279ed"/><stop offset="0.497" stop-color="#c471ed"/><stop offset="1" stop-color="#f64f59"/></linearGradient></defs><path d="M32,120V456a40.045,40.045,0,0,0,40,40H288v-.135a8.016,8.016,0,0,0,1.454.135H446.546a8,8,0,0,0,7.967-7.275L471.305,304H472a8,8,0,0,0,8-8V264a8,8,0,0,0-8-8H432V104a8,8,0,0,0-2.343-5.657l-80-80A8,8,0,0,0,344,16H136A40.045,40.045,0,0,0,96,56V80H72A40.045,40.045,0,0,0,32,120ZM439.24,480H296.76l-16-176H455.24ZM464,272v16H272V272ZM352,43.313,404.687,96H376a24.028,24.028,0,0,1-24-24ZM112,56a24.027,24.027,0,0,1,24-24H336V72a40.045,40.045,0,0,0,40,40h40V256H368V168a8,8,0,0,0-2.343-5.657l-80-80A8,8,0,0,0,280,80H112ZM340.687,160H312a24.028,24.028,0,0,1-24-24V107.313ZM48,120A24.027,24.027,0,0,1,72,96H272v40a40.045,40.045,0,0,0,40,40h40v80H264a8,8,0,0,0-8,8v32a8,8,0,0,0,8,8h.694l16,176H72a24.027,24.027,0,0,1-24-24Zm120,88H312a8,8,0,0,1,0,16H168a8,8,0,0,1,0-16ZM80,264a8,8,0,0,1,8-8H216a8,8,0,0,1,0,16H88A8,8,0,0,1,80,264Zm0,96a8,8,0,0,1,8-8H232a8,8,0,0,1,0,16H88A8,8,0,0,1,80,360Zm0-144a8,8,0,0,1,8-8h48a8,8,0,0,1,0,16H88A8,8,0,0,1,80,216Zm0,96a8,8,0,0,1,8-8H224a8,8,0,0,1,0,16H88A8,8,0,0,1,80,312Zm0,96a8,8,0,0,1,8-8h48a8,8,0,0,1,0,16H88A8,8,0,0,1,80,408Zm0-240a8,8,0,0,1,8-8h96a8,8,0,0,1,0,16H88A8,8,0,0,1,80,168ZM240,408a8,8,0,0,1-8,8H168a8,8,0,0,1,0-16h64A8,8,0,0,1,240,408Zm160.027,31.336,8-96a8,8,0,0,1,15.946,1.328l-8,96A8,8,0,0,1,408.009,448q-.335,0-.673-.027A8,8,0,0,1,400.027,439.336ZM360,440V344a8,8,0,0,1,16,0v96a8,8,0,0,1-16,0Zm-47.973-95.336a8,8,0,0,1,15.946-1.328l8,96a8,8,0,0,1-7.309,8.637q-.339.027-.673.027a8,8,0,0,1-7.964-7.336Z" style="fill:url(#JShine)"/></svg>
