<svg id="update-file" enable-background="new 0 0 300 300" height="512" viewBox="0 0 300 300" width="512" xmlns="http://www.w3.org/2000/svg" xmlns:xlink="http://www.w3.org/1999/xlink"><linearGradient id="SVGID_1_" gradientUnits="userSpaceOnUse" x1="41.255" x2="266.566" y1="275.484" y2="50.174"><stop offset="0" stop-color="#107eff"/><stop offset="1" stop-color="#8f16ff"/></linearGradient><g><path d="m253.22 235.173-2.828 2.828 2.828 2.828c1.562 1.562 1.562 4.094 0 5.656-.781.781-1.805 1.172-2.828 1.172s-2.047-.391-2.828-1.172l-2.828-2.828-2.828 2.828c-.781.781-1.805 1.172-2.828 1.172s-2.047-.391-2.828-1.172c-1.562-1.562-1.562-4.094 0-5.656l2.828-2.828-2.828-2.828c-1.562-1.562-1.562-4.094 0-5.656s4.094-1.562 5.656 0l2.828 2.828 2.828-2.828c1.562-1.562 4.094-1.562 5.656 0s1.562 4.094 0 5.656zm9.515-103.701c-2.501 0-4.53 2.028-4.53 4.53 0 2.501 2.028 4.529 4.53 4.529s4.53-2.028 4.53-4.529c0-2.502-2.028-4.53-4.53-4.53zm-26 50.529c-6.617 0-12-5.383-12-12s5.383-12 12-12 12 5.383 12 12-5.383 12-12 12zm0-8c2.207 0 4-1.795 4-4s-1.793-4-4-4-4 1.795-4 4 1.793 4 4 4zm-33.172-78.828c.75.75 1.172 1.768 1.172 2.828v132c0 6.617-5.383 12-12 12h-24v4c0 6.617-5.383 12-12 12h-4v4c0 6.617-5.383 12-12 12h-96c-6.617 0-12-5.383-12-12v-132c0-6.617 5.383-12 12-12h4v-4c0-6.617 5.383-12 12-12h4v-28c0-6.617 5.383-12 12-12h92c1.062 0 2.078.422 2.828 1.172zm-58.828 162.828h-84c-6.617 0-12-5.383-12-12v-120h-4c-2.205 0-4 1.795-4 4v132c0 2.205 1.795 4 4 4h96c2.207 0 4-1.795 4-4zm52-28v-128h-28c-2.211 0-4-1.791-4-4v-28h-88c-2.205 0-4 1.795-4 4v156c0 2.205 1.795 4 4 4h116c2.207 0 4-1.794 4-4zm28-148h-16c-1.477 0-2.832-.812-3.527-2.113s-.617-2.879.199-4.105l32-48c.977-1.467 2.809-2.127 4.488-1.609 1.688.51 2.84 2.066 2.84 3.828v44h16c1.477 0 2.832.812 3.527 2.113s.617 2.879-.199 4.105l-32 48c-.754 1.133-2.016 1.781-3.328 1.781-.387 0-.777-.055-1.16-.172-1.688-.51-2.84-2.066-2.84-3.828zm4-8c2.211 0 4 1.791 4 4v34.789l20.527-30.789h-12.527c-2.211 0-4-1.791-4-4v-34.789l-20.527 30.789zm-53.597 84c0 21.176-17.227 38.402-38.402 38.402s-38.402-17.227-38.402-38.402 17.227-38.402 38.402-38.402 38.402 17.227 38.402 38.402zm-8 0c0-16.764-13.637-30.402-30.402-30.402-16.764 0-30.402 13.639-30.402 30.402s13.639 30.402 30.402 30.402c16.765.001 30.402-13.638 30.402-30.402zm-24.403-12h-8.344l1.172-1.172c1.562-1.562 1.562-4.094 0-5.656s-4.094-1.562-5.656 0l-8 8c-.347.347-.593.756-.788 1.187-.059.131-.097.261-.141.396-.106.322-.169.647-.192.986-.009.14-.026.272-.021.411.016.425.09.847.245 1.258.013.035.013.073.027.107.002.005.001.009.003.014.186.449.466.83.785 1.173.035.038.046.087.082.124l8 8c.781.781 1.805 1.172 2.828 1.172s2.047-.391 2.828-1.172c1.562-1.562 1.562-4.094 0-5.656l-1.172-1.172h8.344c3.309 0 6 2.691 6 6s-2.691 6-6 6h-22c-2.209 0-4 1.791-4 4s1.791 4 4 4h22c7.719 0 14-6.281 14-14s-6.281-14-14-14z" fill="url(#SVGID_1_)"/></g></svg>