<svg id="update-file" enable-background="new 0 0 300 300" height="512" viewBox="0 0 300 300" width="512" xmlns="http://www.w3.org/2000/svg"><g><path d="m249.656 247.658c-1.023 0-2.047-.391-2.828-1.172l-11.312-11.312c-1.562-1.562-1.562-4.094 0-5.656s4.094-1.562 5.656 0l11.312 11.312c1.562 1.562 1.562 4.094 0 5.656-.781.781-1.804 1.172-2.828 1.172z" fill="#4c241d"/><path d="m238.344 247.658c-1.023 0-2.047-.391-2.828-1.172-1.562-1.562-1.562-4.094 0-5.656l11.312-11.312c1.562-1.562 4.094-1.562 5.656 0s1.562 4.094 0 5.656l-11.312 11.312c-.781.781-1.805 1.172-2.828 1.172z" fill="#4c241d"/><circle cx="182" cy="128.001" fill="#ffc7c7" r="86"/><circle cx="262" cy="136.001" fill="#4c241d" r="4.529"/><path d="m236 182.001c-6.617 0-12-5.383-12-12s5.383-12 12-12 12 5.383 12 12-5.383 12-12 12zm0-16c-2.207 0-4 1.795-4 4s1.793 4 4 4 4-1.795 4-4-1.793-4-4-4z" fill="#4c241d"/><g><path d="m136 122.001h-92c-4.418 0-8 3.582-8 8v132c0 4.418 3.582 8 8 8h96c4.418 0 8-3.582 8-8v-108z" fill="#e2e2e2"/><path d="m140 274.001h-96c-6.617 0-12-5.383-12-12v-132c0-6.617 5.383-12 12-12h92c1.668 0 3.16 1.035 3.746 2.596l12 32c.168.449.254.924.254 1.404v108c0 6.618-5.383 12-12 12zm-96-148c-2.205 0-4 1.795-4 4v132c0 2.205 1.795 4 4 4h96c2.207 0 4-1.795 4-4v-107.275l-10.771-28.725z" fill="#4c241d"/></g><g><path d="m152 106.001h-92c-4.418 0-8 3.582-8 8v132c0 4.418 3.582 8 8 8h96c4.418 0 8-3.582 8-8v-108z" fill="#e2e2e2"/><path d="m156 258.001h-96c-6.617 0-12-5.383-12-12v-132c0-6.617 5.383-12 12-12h92c1.668 0 3.16 1.035 3.746 2.596l12 32c.168.449.254.924.254 1.404v108c0 6.618-5.383 12-12 12zm-96-148c-2.205 0-4 1.795-4 4v132c0 2.205 1.795 4 4 4h96c2.207 0 4-1.795 4-4v-107.275l-10.773-28.725z" fill="#4c241d"/></g><g><path d="m168 66.001h-92c-4.418 0-8 3.582-8 8v156c0 4.418 3.582 8 8 8h116c4.418 0 8-3.582 8-8v-132z" fill="#fff"/><path d="m192 242.001h-116c-6.617 0-12-5.383-12-12v-156c0-6.617 5.383-12 12-12h92c1.062 0 2.078.422 2.828 1.172l32 32c.75.75 1.172 1.768 1.172 2.828v132c0 6.618-5.383 12-12 12zm-116-172c-2.205 0-4 1.795-4 4v156c0 2.205 1.795 4 4 4h116c2.207 0 4-1.795 4-4v-130.343l-29.656-29.656h-90.344z" fill="#4c241d"/></g><g><path d="m168 98.001h32l-32-32z" fill="#efefd2"/><path d="m200 102.001h-32c-2.211 0-4-1.791-4-4v-32c0-1.617.973-3.076 2.469-3.695 1.5-.617 3.219-.277 4.359.867l32 32c1.145 1.145 1.488 2.863.867 4.359-.617 1.495-2.078 2.469-3.695 2.469zm-28-8h18.344l-18.344-18.343z" fill="#4c241d"/></g><g><path d="m260 78.001h-20v-48l-32 48h20v48z" fill="#00ccca"/><path d="m228 130.001c-.387 0-.777-.055-1.16-.172-1.688-.51-2.84-2.066-2.84-3.828v-44h-16c-1.477 0-2.832-.812-3.527-2.113s-.617-2.879.199-4.105l32-48c.977-1.467 2.809-2.127 4.488-1.609 1.688.51 2.84 2.066 2.84 3.828v44h16c1.477 0 2.832.812 3.527 2.113s.617 2.879-.199 4.105l-32 48c-.754 1.133-2.016 1.781-3.328 1.781zm-12.527-56h12.527c2.211 0 4 1.791 4 4v34.789l20.527-30.789h-12.527c-2.211 0-4-1.791-4-4v-34.789z" fill="#4c241d"/></g><g><circle cx="136" cy="158.001" fill="#ffce56" r="34.402"/><path d="m136 196.404c-21.176 0-38.402-17.227-38.402-38.402s17.227-38.402 38.402-38.402 38.402 17.227 38.402 38.402-17.226 38.402-38.402 38.402zm0-68.805c-16.764 0-30.402 13.639-30.402 30.402s13.639 30.402 30.402 30.402c16.766 0 30.402-13.639 30.402-30.402s-13.636-30.402-30.402-30.402z" fill="#4c241d"/></g><g fill="#4c241d"><path d="m142 174.001h-22c-2.209 0-4-1.791-4-4s1.791-4 4-4h22c3.309 0 6-2.691 6-6s-2.691-6-6-6h-18c-1.617 0-3.076-.975-3.695-2.469-.619-1.496-.277-3.215.867-4.359l8-8c1.562-1.562 4.094-1.562 5.656 0s1.562 4.094 0 5.656l-1.172 1.172h8.344c7.719 0 14 6.281 14 14s-6.281 14-14 14z"/><path d="m132 162.001c-1.023 0-2.047-.391-2.828-1.172l-8-8c-1.562-1.562-1.562-4.094 0-5.656s4.094-1.562 5.656 0l8 8c1.562 1.562 1.562 4.094 0 5.656-.781.782-1.805 1.172-2.828 1.172z"/></g></g></svg>