<svg height="512pt" viewBox="-76 0 512 512.00046" width="512pt" xmlns="http://www.w3.org/2000/svg" xmlns:xlink="http://www.w3.org/1999/xlink"><linearGradient id="a" gradientUnits="userSpaceOnUse" x1=".00023" x2="360.00023" y1="256" y2="256"><stop offset="0" stop-color="#80d8ff"/><stop offset="1" stop-color="#3f42f2"/></linearGradient><path d="m340 0h-320c-11.046875 0-20 8.953125-20 20v471.980469c0 14.667969 15.320312 24.367187 28.582031 18.066406l151.417969-71.921875 151.417969 71.921875c13.253906 6.292969 28.582031-3.386719 28.582031-18.066406v-471.980469c0-11.046875-8.953125-20-20-20zm-20 460.339844-131.417969-62.421875c-5.429687-2.578125-11.734375-2.578125-17.164062 0l-131.417969 62.421875v-420.34375h280zm-201.488281-223.164063-7.664063 44.691407c-2.800781 16.308593 14.367188 28.785156 29.015625 21.082031l40.136719-21.097657 40.136719 21.097657c14.652343 7.703125 31.816406-4.773438 29.019531-21.082031l-7.667969-44.691407 32.472657-31.652343c11.851562-11.546876 5.296874-31.730469-11.082032-34.113282l-44.875-6.519531-20.066406-40.660156c-7.324219-14.839844-28.546875-14.84375-35.871094 0l-20.066406 40.660156-44.875 6.519531c-16.371094 2.378906-22.9375 22.5625-11.082031 34.113282zm39.640625-34.214843c6.515625-.945313 12.148437-5.039063 15.0625-10.941407l6.785156-13.75 6.789062 13.75c2.910157 5.902344 8.542969 9.996094 15.058594 10.941407l15.175782 2.203124-10.980469 10.707032c-4.714844 4.59375-6.867188 11.214844-5.753907 17.703125l2.59375 15.113281-13.574218-7.136719c-5.828125-3.0625-12.789063-3.0625-18.613282 0l-13.574218 7.136719 2.59375-15.113281c1.113281-6.488281-1.039063-13.109375-5.753906-17.703125l-10.980469-10.707032zm0 0" fill="url(#a)"/></svg>